# Banana mesh for MuJoCo
v -0.106945 0.000000 -0.065568
v -0.106945 0.000000 -0.065568
v -0.106945 0.000000 -0.065568
v -0.106945 0.000000 -0.065568
v -0.106945 -0.000000 -0.065568
v -0.106945 -0.000000 -0.065568
v -0.106945 -0.000000 -0.065568
v -0.106945 -0.000000 -0.065568
v -0.106945 -0.000000 -0.065568
v -0.106945 -0.000000 -0.065568
v -0.106945 0.000000 -0.065568
v -0.106945 0.000000 -0.065568
v -0.103706 0.004680 -0.059625
v -0.102051 0.004053 -0.060589
v -0.100840 0.002340 -0.061294
v -0.100396 0.000000 -0.061552
v -0.100840 -0.002340 -0.061294
v -0.102051 -0.004053 -0.060589
v -0.103706 -0.004680 -0.059625
v -0.105361 -0.004053 -0.058662
v -0.106572 -0.002340 -0.057957
v -0.107015 -0.000000 -0.057699
v -0.106572 0.002340 -0.057957
v -0.105361 0.004053 -0.058662
v -0.100137 0.006608 -0.053875
v -0.097881 0.005723 -0.055364
v -0.096230 0.003304 -0.056455
v -0.095625 0.000000 -0.056854
v -0.096230 -0.003304 -0.056455
v -0.097881 -0.005723 -0.055364
v -0.100137 -0.006608 -0.053875
v -0.102393 -0.005723 -0.052385
v -0.104044 -0.003304 -0.051294
v -0.104649 -0.000000 -0.050895
v -0.104044 0.003304 -0.051294
v -0.102393 0.005723 -0.052385
v -0.096250 0.008072 -0.048334
v -0.093601 0.006990 -0.050306
v -0.091662 0.004036 -0.051750
v -0.090952 0.000000 -0.052278
v -0.091662 -0.004036 -0.051750
v -0.093601 -0.006990 -0.050306
v -0.096250 -0.008072 -0.048334
v -0.098898 -0.006990 -0.046362
v -0.100837 -0.004036 -0.044918
v -0.101547 -0.000000 -0.044390
v -0.100837 0.004036 -0.044918
v -0.098898 0.006990 -0.046362
v -0.092056 0.009285 -0.043021
v -0.089142 0.008041 -0.045458
v -0.087009 0.004643 -0.047242
v -0.086228 0.000000 -0.047895
v -0.087009 -0.004643 -0.047242
v -0.089142 -0.008041 -0.045458
v -0.092056 -0.009285 -0.043021
v -0.094970 -0.008041 -0.040585
v -0.097103 -0.004643 -0.038801
v -0.097884 -0.000000 -0.038148
v -0.097103 0.004643 -0.038801
v -0.094970 0.008041 -0.040585
v -0.087569 0.010330 -0.037954
v -0.084485 0.008946 -0.040843
v -0.082228 0.005165 -0.042958
v -0.081402 0.000000 -0.043732
v -0.082228 -0.005165 -0.042958
v -0.084485 -0.008946 -0.040843
v -0.087569 -0.010330 -0.037954
v -0.090653 -0.008946 -0.035064
v -0.092911 -0.005165 -0.032949
v -0.093737 -0.000000 -0.032175
v -0.092911 0.005165 -0.032949
v -0.090653 0.008946 -0.035064
v -0.082804 0.011248 -0.033147
v -0.079629 0.009741 -0.036477
v -0.077305 0.005624 -0.038915
v -0.076454 0.000000 -0.039808
v -0.077305 -0.005624 -0.038915
v -0.079629 -0.009741 -0.036477
v -0.082804 -0.011248 -0.033147
v -0.085980 -0.009741 -0.029817
v -0.088304 -0.005624 -0.027378
v -0.089155 -0.000000 -0.026486
v -0.088304 0.005624 -0.027378
v -0.085980 0.009741 -0.029817
v -0.077776 0.012063 -0.028617
v -0.074577 0.010447 -0.032375
v -0.072236 0.006031 -0.035126
v -0.071379 0.000000 -0.036132
v -0.072236 -0.006031 -0.035126
v -0.074577 -0.010447 -0.032375
v -0.077776 -0.012063 -0.028617
v -0.080974 -0.010447 -0.024859
v -0.083315 -0.006031 -0.022108
v -0.084172 -0.000000 -0.021101
v -0.083315 0.006031 -0.022108
v -0.080974 0.010447 -0.024859
v -0.072500 0.012789 -0.024377
v -0.069339 0.011075 -0.028546
v -0.067025 0.006394 -0.031598
v -0.066178 0.000000 -0.032715
v -0.067025 -0.006394 -0.031598
v -0.069339 -0.011075 -0.028546
v -0.072500 -0.012789 -0.024377
v -0.075661 -0.011075 -0.020208
v -0.077975 -0.006394 -0.017156
v -0.078822 -0.000000 -0.016039
v -0.077975 0.006394 -0.017156
v -0.075661 0.011075 -0.020208
v -0.066993 0.013436 -0.020441
v -0.063925 0.011636 -0.025002
v -0.061678 0.006718 -0.028340
v -0.060856 0.000000 -0.029562
v -0.061678 -0.006718 -0.028340
v -0.063925 -0.011636 -0.025002
v -0.066993 -0.013436 -0.020441
v -0.070062 -0.011636 -0.015881
v -0.072308 -0.006718 -0.012543
v -0.073131 -0.000000 -0.011321
v -0.072308 0.006718 -0.012543
v -0.070062 0.011636 -0.015881
v -0.061274 0.014012 -0.016823
v -0.058347 0.012135 -0.021751
v -0.056204 0.007006 -0.025360
v -0.055420 0.000000 -0.026680
v -0.056204 -0.007006 -0.025360
v -0.058347 -0.012135 -0.021751
v -0.061274 -0.014012 -0.016823
v -0.064201 -0.012135 -0.011894
v -0.066343 -0.007006 -0.008286
v -0.067128 -0.000000 -0.006965
v -0.066343 0.007006 -0.008286
v -0.064201 0.012135 -0.011894
v -0.055359 0.014522 -0.013532
v -0.052618 0.012576 -0.018803
v -0.050612 0.007261 -0.022662
v -0.049878 0.000000 -0.024074
v -0.050612 -0.007261 -0.022662
v -0.052618 -0.012576 -0.018803
v -0.055359 -0.014522 -0.013532
v -0.058100 -0.012576 -0.008261
v -0.060106 -0.007261 -0.004403
v -0.060840 -0.000000 -0.002990
v -0.060106 0.007261 -0.004403
v -0.058100 0.012576 -0.008261
v -0.049268 0.014969 -0.010580
v -0.046754 0.012963 -0.016164
v -0.044914 0.007484 -0.020251
v -0.044240 0.000000 -0.021748
v -0.044914 -0.007484 -0.020251
v -0.046754 -0.012963 -0.016164
v -0.049268 -0.014969 -0.010580
v -0.051782 -0.012963 -0.004997
v -0.053623 -0.007484 -0.000909
v -0.054296 -0.000000 0.000587
v -0.053623 0.007484 -0.000909
v -0.051782 0.012963 -0.004997
v -0.043021 0.015355 -0.007977
v -0.040769 0.013298 -0.013841
v -0.039120 0.007677 -0.018133
v -0.038517 0.000000 -0.019705
v -0.039120 -0.007677 -0.018133
v -0.040769 -0.013298 -0.013841
v -0.043021 -0.015355 -0.007977
v -0.045273 -0.013298 -0.002113
v -0.046921 -0.007677 0.002180
v -0.047525 -0.000000 0.003751
v -0.046921 0.007677 0.002180
v -0.045273 0.013298 -0.002113
v -0.036636 0.015683 -0.005729
v -0.034678 0.013582 -0.011839
v -0.033244 0.007842 -0.016311
v -0.032719 0.000000 -0.017948
v -0.033244 -0.007842 -0.016311
v -0.034678 -0.013582 -0.011839
v -0.036636 -0.015683 -0.005729
v -0.038595 -0.013582 0.000380
v -0.040029 -0.007842 0.004853
v -0.040554 -0.000000 0.006490
v -0.040029 0.007842 0.004853
v -0.038595 0.013582 0.000380
v -0.030135 0.015955 -0.003846
v -0.028496 0.013817 -0.010163
v -0.027296 0.007977 -0.014788
v -0.026857 0.000000 -0.016481
v -0.027296 -0.007977 -0.014788
v -0.028496 -0.013817 -0.010163
v -0.030135 -0.015955 -0.003846
v -0.031775 -0.013817 0.002472
v -0.032974 -0.007977 0.007097
v -0.033414 -0.000000 0.008790
v -0.032974 0.007977 0.007097
v -0.031775 0.013817 0.002472
v -0.023539 0.016171 -0.002331
v -0.022241 0.014004 -0.008818
v -0.021291 0.008085 -0.013567
v -0.020943 0.000000 -0.015305
v -0.021291 -0.008085 -0.013567
v -0.022241 -0.014004 -0.008818
v -0.023539 -0.016171 -0.002331
v -0.024836 -0.014004 0.004156
v -0.025786 -0.008085 0.008904
v -0.026134 -0.000000 0.010643
v -0.025786 0.008085 0.008904
v -0.024836 0.014004 0.004156
v -0.016867 0.016332 -0.001191
v -0.015928 0.014144 -0.007806
v -0.015240 0.008166 -0.012649
v -0.014989 0.000000 -0.014422
v -0.015240 -0.008166 -0.012649
v -0.015928 -0.014144 -0.007806
v -0.016867 -0.016332 -0.001191
v -0.017806 -0.014144 0.005424
v -0.018494 -0.008166 0.010266
v -0.018745 -0.000000 0.012039
v -0.018494 0.008166 0.010266
v -0.017806 0.014144 0.005424
v -0.010142 0.016440 -0.000429
v -0.009573 0.014237 -0.007131
v -0.009157 0.008220 -0.012036
v -0.009005 0.000000 -0.013832
v -0.009157 -0.008220 -0.012036
v -0.009573 -0.014237 -0.007131
v -0.010142 -0.016440 -0.000429
v -0.010710 -0.014237 0.006272
v -0.011126 -0.008220 0.011178
v -0.011279 -0.000000 0.012973
v -0.011126 0.008220 0.011178
v -0.010710 0.014237 0.006272
v -0.003384 0.016493 -0.000048
v -0.003194 0.014284 -0.006792
v -0.003055 0.008247 -0.011730
v -0.003004 0.000000 -0.013537
v -0.003055 -0.008247 -0.011730
v -0.003194 -0.014284 -0.006792
v -0.003384 -0.016493 -0.000048
v -0.003574 -0.014284 0.006697
v -0.003714 -0.008247 0.011634
v -0.003765 -0.000000 0.013441
v -0.003714 0.008247 0.011634
v -0.003574 0.014284 0.006697
v 0.003384 0.016493 -0.000048
v 0.003194 0.014284 -0.006792
v 0.003055 0.008247 -0.011730
v 0.003004 0.000000 -0.013537
v 0.003055 -0.008247 -0.011730
v 0.003194 -0.014284 -0.006792
v 0.003384 -0.016493 -0.000048
v 0.003574 -0.014284 0.006697
v 0.003714 -0.008247 0.011634
v 0.003765 -0.000000 0.013441
v 0.003714 0.008247 0.011634
v 0.003574 0.014284 0.006697
v 0.010142 0.016440 -0.000429
v 0.009573 0.014237 -0.007131
v 0.009157 0.008220 -0.012036
v 0.009005 0.000000 -0.013832
v 0.009157 -0.008220 -0.012036
v 0.009573 -0.014237 -0.007131
v 0.010142 -0.016440 -0.000429
v 0.010710 -0.014237 0.006272
v 0.011126 -0.008220 0.011178
v 0.011279 -0.000000 0.012973
v 0.011126 0.008220 0.011178
v 0.010710 0.014237 0.006272
v 0.016867 0.016332 -0.001191
v 0.015928 0.014144 -0.007806
v 0.015240 0.008166 -0.012649
v 0.014989 0.000000 -0.014422
v 0.015240 -0.008166 -0.012649
v 0.015928 -0.014144 -0.007806
v 0.016867 -0.016332 -0.001191
v 0.017806 -0.014144 0.005424
v 0.018494 -0.008166 0.010266
v 0.018745 -0.000000 0.012039
v 0.018494 0.008166 0.010266
v 0.017806 0.014144 0.005424
v 0.023539 0.016171 -0.002331
v 0.022241 0.014004 -0.008818
v 0.021291 0.008085 -0.013567
v 0.020943 0.000000 -0.015305
v 0.021291 -0.008085 -0.013567
v 0.022241 -0.014004 -0.008818
v 0.023539 -0.016171 -0.002331
v 0.024836 -0.014004 0.004156
v 0.025786 -0.008085 0.008904
v 0.026134 -0.000000 0.010643
v 0.025786 0.008085 0.008904
v 0.024836 0.014004 0.004156
v 0.030135 0.015955 -0.003846
v 0.028496 0.013817 -0.010163
v 0.027296 0.007977 -0.014788
v 0.026857 0.000000 -0.016481
v 0.027296 -0.007977 -0.014788
v 0.028496 -0.013817 -0.010163
v 0.030135 -0.015955 -0.003846
v 0.031775 -0.013817 0.002472
v 0.032974 -0.007977 0.007097
v 0.033414 -0.000000 0.008790
v 0.032974 0.007977 0.007097
v 0.031775 0.013817 0.002472
v 0.036636 0.015683 -0.005729
v 0.034678 0.013582 -0.011839
v 0.033244 0.007842 -0.016311
v 0.032719 0.000000 -0.017948
v 0.033244 -0.007842 -0.016311
v 0.034678 -0.013582 -0.011839
v 0.036636 -0.015683 -0.005729
v 0.038595 -0.013582 0.000380
v 0.040029 -0.007842 0.004853
v 0.040554 -0.000000 0.006490
v 0.040029 0.007842 0.004853
v 0.038595 0.013582 0.000380
v 0.043021 0.015355 -0.007977
v 0.040769 0.013298 -0.013841
v 0.039120 0.007677 -0.018133
v 0.038517 0.000000 -0.019705
v 0.039120 -0.007677 -0.018133
v 0.040769 -0.013298 -0.013841
v 0.043021 -0.015355 -0.007977
v 0.045273 -0.013298 -0.002113
v 0.046921 -0.007677 0.002180
v 0.047525 -0.000000 0.003751
v 0.046921 0.007677 0.002180
v 0.045273 0.013298 -0.002113
v 0.049268 0.014969 -0.010580
v 0.046754 0.012963 -0.016164
v 0.044914 0.007484 -0.020251
v 0.044240 0.000000 -0.021748
v 0.044914 -0.007484 -0.020251
v 0.046754 -0.012963 -0.016164
v 0.049268 -0.014969 -0.010580
v 0.051782 -0.012963 -0.004997
v 0.053623 -0.007484 -0.000909
v 0.054296 -0.000000 0.000587
v 0.053623 0.007484 -0.000909
v 0.051782 0.012963 -0.004997
v 0.055359 0.014496 -0.013532
v 0.052623 0.012554 -0.018794
v 0.050620 0.007248 -0.022645
v 0.049887 0.000000 -0.024055
v 0.050620 -0.007248 -0.022645
v 0.052623 -0.012554 -0.018794
v 0.055359 -0.014496 -0.013532
v 0.058095 -0.012554 -0.008271
v 0.060097 -0.007248 -0.004419
v 0.060830 -0.000000 -0.003009
v 0.060097 0.007248 -0.004419
v 0.058095 0.012554 -0.008271
v 0.061274 0.013864 -0.016823
v 0.058377 0.012007 -0.021699
v 0.056257 0.006932 -0.025269
v 0.055481 0.000000 -0.026576
v 0.056257 -0.006932 -0.025269
v 0.058377 -0.012007 -0.021699
v 0.061274 -0.013864 -0.016823
v 0.064170 -0.012007 -0.011946
v 0.066290 -0.006932 -0.008376
v 0.067066 -0.000000 -0.007069
v 0.066290 0.006932 -0.008376
v 0.064170 0.012007 -0.011946
v 0.066993 0.013079 -0.020441
v 0.064006 0.011326 -0.024880
v 0.061820 0.006539 -0.028130
v 0.061019 0.000000 -0.029319
v 0.061820 -0.006539 -0.028130
v 0.064006 -0.011326 -0.024880
v 0.066993 -0.013079 -0.020441
v 0.069980 -0.011326 -0.016003
v 0.072167 -0.006539 -0.012753
v 0.072967 -0.000000 -0.011564
v 0.072167 0.006539 -0.012753
v 0.069980 0.011326 -0.016003
v 0.072500 0.012149 -0.024377
v 0.069497 0.010522 -0.028337
v 0.067299 0.006075 -0.031237
v 0.066494 0.000000 -0.032298
v 0.067299 -0.006075 -0.031237
v 0.069497 -0.010522 -0.028337
v 0.072500 -0.012149 -0.024377
v 0.075503 -0.010522 -0.020416
v 0.077701 -0.006075 -0.017517
v 0.078505 -0.000000 -0.016456
v 0.077701 0.006075 -0.017517
v 0.075503 0.010522 -0.020416
v 0.077776 0.011089 -0.028617
v 0.074835 0.009604 -0.032071
v 0.072683 0.005545 -0.034600
v 0.071895 0.000000 -0.035526
v 0.072683 -0.005545 -0.034600
v 0.074835 -0.009604 -0.032071
v 0.077776 -0.011089 -0.028617
v 0.080716 -0.009604 -0.025162
v 0.082869 -0.005545 -0.022633
v 0.083656 -0.000000 -0.021707
v 0.082869 0.005545 -0.022633
v 0.080716 0.009604 -0.025162
v 0.082804 0.009913 -0.033147
v 0.080006 0.008585 -0.036082
v 0.077957 0.004957 -0.038231
v 0.077207 0.000000 -0.039017
v 0.077957 -0.004957 -0.038231
v 0.080006 -0.008585 -0.036082
v 0.082804 -0.009913 -0.033147
v 0.085603 -0.008585 -0.030212
v 0.087651 -0.004957 -0.028063
v 0.088401 -0.000000 -0.027277
v 0.087651 0.004957 -0.028063
v 0.085603 0.008585 -0.030212
v 0.087569 0.008636 -0.037954
v 0.084991 0.007479 -0.040369
v 0.083104 0.004318 -0.042138
v 0.082413 0.000000 -0.042785
v 0.083104 -0.004318 -0.042138
v 0.084991 -0.007479 -0.040369
v 0.087569 -0.008636 -0.037954
v 0.090148 -0.007479 -0.035538
v 0.092035 -0.004318 -0.033770
v 0.092726 -0.000000 -0.033122
v 0.092035 0.004318 -0.033770
v 0.090148 0.007479 -0.035538
v 0.092056 0.007274 -0.043021
v 0.089773 0.006300 -0.044930
v 0.088102 0.003637 -0.046328
v 0.087490 0.000000 -0.046839
v 0.088102 -0.003637 -0.046328
v 0.089773 -0.006300 -0.044930
v 0.092056 -0.007274 -0.043021
v 0.094339 -0.006300 -0.041112
v 0.096010 -0.003637 -0.039715
v 0.096622 -0.000000 -0.039203
v 0.096010 0.003637 -0.039715
v 0.094339 0.006300 -0.041112
v 0.096250 0.005840 -0.048334
v 0.094333 0.005058 -0.049761
v 0.092930 0.002920 -0.050805
v 0.092417 0.000000 -0.051188
v 0.092930 -0.002920 -0.050805
v 0.094333 -0.005058 -0.049761
v 0.096250 -0.005840 -0.048334
v 0.098166 -0.005058 -0.046907
v 0.099569 -0.002920 -0.045863
v 0.100082 -0.000000 -0.045480
v 0.099569 0.002920 -0.045863
v 0.098166 0.005058 -0.046907
v 0.100137 0.004337 -0.053875
v 0.098656 0.003756 -0.054852
v 0.097572 0.002169 -0.055568
v 0.097176 0.000000 -0.055830
v 0.097572 -0.002169 -0.055568
v 0.098656 -0.003756 -0.054852
v 0.100137 -0.004337 -0.053875
v 0.101618 -0.003756 -0.052897
v 0.102702 -0.002169 -0.052181
v 0.103098 -0.000000 -0.051919
v 0.102702 0.002169 -0.052181
v 0.101618 0.003756 -0.052897
v 0.103706 0.002723 -0.059625
v 0.102743 0.002358 -0.060186
v 0.102038 0.001362 -0.060596
v 0.101780 0.000000 -0.060746
v 0.102038 -0.001362 -0.060596
v 0.102743 -0.002358 -0.060186
v 0.103706 -0.002723 -0.059625
v 0.104669 -0.002358 -0.059065
v 0.105373 -0.001362 -0.058655
v 0.105631 -0.000000 -0.058504
v 0.105373 0.001362 -0.058655
v 0.104669 0.002358 -0.059065
v 0.106945 0.000000 -0.065568
v 0.106945 0.000000 -0.065568
v 0.106945 0.000000 -0.065568
v 0.106945 0.000000 -0.065568
v 0.106945 -0.000000 -0.065568
v 0.106945 -0.000000 -0.065568
v 0.106945 -0.000000 -0.065568
v 0.106945 -0.000000 -0.065568
v 0.106945 -0.000000 -0.065568
v 0.106945 -0.000000 -0.065568
v 0.106945 0.000000 -0.065568
v 0.106945 0.000000 -0.065568
v -0.106945 0.000000 -0.065568
v 0.106945 0.000000 -0.065568
vn 0.000000 0.000000 -0.000000
vn 0.000000 0.000000 -0.000000
vn 0.000000 0.000000 -0.000000
vn 0.000000 0.000000 -0.000000
vn 0.000000 -0.000000 -0.000000
vn 0.000000 -0.000000 -0.000000
vn 0.000000 -0.000000 -0.000000
vn -0.000000 -0.000000 0.000000
vn -0.000000 -0.000000 0.000000
vn -0.000000 -0.000000 0.000000
vn -0.000000 0.000000 0.000000
vn -0.000000 0.000000 0.000000
vn 0.000000 1.000000 -0.000000
vn 0.369125 0.904194 -0.214894
vn 0.706114 0.576557 -0.411079
vn 0.864216 0.000000 -0.503121
vn 0.706114 -0.576557 -0.411079
vn 0.369125 -0.904194 -0.214894
vn 0.000000 -1.000000 -0.000000
vn -0.369125 -0.904194 0.214894
vn -0.706114 -0.576557 0.411079
vn -0.864216 -0.000000 0.503121
vn -0.706114 0.576557 0.411079
vn -0.369125 0.904194 0.214894
vn 0.000000 1.000000 -0.000000
vn 0.356422 0.904194 -0.235363
vn 0.681814 0.576557 -0.450236
vn 0.834475 0.000000 -0.551046
vn 0.681814 -0.576557 -0.450236
vn 0.356422 -0.904194 -0.235363
vn 0.000000 -1.000000 -0.000000
vn -0.356422 -0.904194 0.235363
vn -0.681814 -0.576557 0.450236
vn -0.834475 -0.000000 0.551046
vn -0.681814 0.576557 0.450236
vn -0.356422 0.904194 0.235363
vn 0.000000 1.000000 -0.000000
vn 0.342585 0.904194 -0.255084
vn 0.655345 0.576557 -0.487961
vn 0.802080 0.000000 -0.597217
vn 0.655345 -0.576557 -0.487961
vn 0.342585 -0.904194 -0.255084
vn 0.000000 -1.000000 -0.000000
vn -0.342585 -0.904194 0.255084
vn -0.655345 -0.576557 0.487961
vn -0.802080 -0.000000 0.597217
vn -0.655345 0.576557 0.487961
vn -0.342585 0.904194 0.255084
vn 0.000000 1.000000 -0.000000
vn 0.327658 0.904194 -0.273993
vn 0.626791 0.576557 -0.524133
vn 0.767132 0.000000 -0.641489
vn 0.626791 -0.576557 -0.524133
vn 0.327658 -0.904194 -0.273993
vn 0.000000 -1.000000 -0.000000
vn -0.327658 -0.904194 0.273993
vn -0.626791 -0.576557 0.524133
vn -0.767132 -0.000000 0.641489
vn -0.626791 0.576557 0.524133
vn -0.327658 0.904194 0.273993
vn 0.000000 1.000000 -0.000000
vn 0.311689 0.904194 -0.292031
vn 0.596243 0.576557 -0.558638
vn 0.729745 0.000000 -0.683720
vn 0.596243 -0.576557 -0.558638
vn 0.311689 -0.904194 -0.292031
vn 0.000000 -1.000000 -0.000000
vn -0.311689 -0.904194 0.292031
vn -0.596243 -0.576557 0.558638
vn -0.729745 -0.000000 0.683720
vn -0.596243 0.576557 0.558638
vn -0.311689 0.904194 0.292031
vn 0.000000 1.000000 -0.000000
vn 0.294729 0.904194 -0.309140
vn 0.563799 0.576557 -0.591366
vn 0.690036 0.000000 -0.723775
vn 0.563799 -0.576557 -0.591366
vn 0.294729 -0.904194 -0.309140
vn 0.000000 -1.000000 -0.000000
vn -0.294729 -0.904194 0.309140
vn -0.563799 -0.576557 0.591366
vn -0.690036 -0.000000 0.723775
vn -0.563799 0.576557 0.591366
vn -0.294729 0.904194 0.309140
vn 0.000000 1.000000 -0.000000
vn 0.276831 0.904194 -0.325265
vn 0.529560 0.576557 -0.622212
vn 0.648131 0.000000 -0.761528
vn 0.529560 -0.576557 -0.622212
vn 0.276831 -0.904194 -0.325265
vn 0.000000 -1.000000 -0.000000
vn -0.276831 -0.904194 0.325265
vn -0.529560 -0.576557 0.622212
vn -0.648131 -0.000000 0.761528
vn -0.529560 0.576557 0.622212
vn -0.276831 0.904194 0.325265
vn 0.000000 1.000000 -0.000000
vn 0.258052 0.904194 -0.340355
vn 0.493638 0.576557 -0.651079
vn 0.604165 0.000000 -0.796859
vn 0.493638 -0.576557 -0.651079
vn 0.258052 -0.904194 -0.340355
vn 0.000000 -1.000000 -0.000000
vn -0.258052 -0.904194 0.340355
vn -0.493638 -0.576557 0.651079
vn -0.604165 -0.000000 0.796859
vn -0.493638 0.576557 0.651079
vn -0.258052 0.904194 0.340355
vn 0.000000 1.000000 -0.000000
vn 0.238452 0.904194 -0.354363
vn 0.456144 0.576557 -0.677875
vn 0.558277 0.000000 -0.829655
vn 0.456144 -0.576557 -0.677875
vn 0.238452 -0.904194 -0.354363
vn 0.000000 -1.000000 -0.000000
vn -0.238452 -0.904194 0.354363
vn -0.456144 -0.576557 0.677875
vn -0.558277 -0.000000 0.829655
vn -0.456144 0.576557 0.677875
vn -0.238452 0.904194 0.354363
vn 0.000000 1.000000 -0.000000
vn 0.218094 0.904194 -0.367243
vn 0.417200 0.576557 -0.702515
vn 0.510613 0.000000 -0.859811
vn 0.417200 -0.576557 -0.702515
vn 0.218094 -0.904194 -0.367243
vn 0.000000 -1.000000 -0.000000
vn -0.218094 -0.904194 0.367243
vn -0.417200 -0.576557 0.702515
vn -0.510613 -0.000000 0.859811
vn -0.417200 0.576557 0.702515
vn -0.218094 0.904194 0.367243
vn 0.000000 1.000000 -0.000000
vn 0.197041 0.904194 -0.378955
vn 0.376928 0.576557 -0.724919
vn 0.461324 0.000000 -0.887232
vn 0.376928 -0.576557 -0.724919
vn 0.197041 -0.904194 -0.378955
vn 0.000000 -1.000000 -0.000000
vn -0.197041 -0.904194 0.378955
vn -0.376928 -0.576557 0.724919
vn -0.461324 -0.000000 0.887232
vn -0.376928 0.576557 0.724919
vn -0.197041 0.904194 0.378955
vn 0.000000 1.000000 -0.000000
vn 0.175362 0.904194 -0.389462
vn 0.335458 0.576557 -0.745017
vn 0.410568 0.000000 -0.911830
vn 0.335458 -0.576557 -0.745017
vn 0.175362 -0.904194 -0.389462
vn 0.000000 -1.000000 -0.000000
vn -0.175362 -0.904194 0.389462
vn -0.335458 -0.576557 0.745017
vn -0.410568 -0.000000 0.911830
vn -0.335458 0.576557 0.745017
vn -0.175362 0.904194 0.389462
vn 0.000000 1.000000 -0.000000
vn 0.153125 0.904194 -0.398729
vn 0.292920 0.576557 -0.762745
vn 0.358506 0.000000 -0.933528
vn 0.292920 -0.576557 -0.762745
vn 0.153125 -0.904194 -0.398729
vn 0.000000 -1.000000 -0.000000
vn -0.153125 -0.904194 0.398729
vn -0.292920 -0.576557 0.762745
vn -0.358506 -0.000000 0.933528
vn -0.292920 0.576557 0.762745
vn -0.153125 0.904194 0.398729
vn 0.000000 1.000000 -0.000000
vn 0.130401 0.904194 -0.406728
vn 0.249450 0.576557 -0.778047
vn 0.305303 0.000000 -0.952255
vn 0.249450 -0.576557 -0.778047
vn 0.130401 -0.904194 -0.406728
vn 0.000000 -1.000000 -0.000000
vn -0.130401 -0.904194 0.406728
vn -0.249450 -0.576557 0.778047
vn -0.305303 -0.000000 0.952255
vn -0.249450 0.576557 0.778047
vn -0.130401 0.904194 0.406728
vn 0.000000 1.000000 -0.000000
vn 0.107262 0.904194 -0.413433
vn 0.205187 0.576557 -0.790874
vn 0.251129 0.000000 -0.967954
vn 0.205187 -0.576557 -0.790874
vn 0.107262 -0.904194 -0.413433
vn 0.000000 -1.000000 -0.000000
vn -0.107262 -0.904194 0.413433
vn -0.205187 -0.576557 0.790874
vn -0.251129 -0.000000 0.967954
vn -0.205187 0.576557 0.790874
vn -0.107262 0.904194 0.413433
vn 0.000000 1.000000 -0.000000
vn 0.083782 0.904194 -0.418823
vn 0.160270 0.576557 -0.801184
vn 0.196156 0.000000 -0.980573
vn 0.160270 -0.576557 -0.801184
vn 0.083782 -0.904194 -0.418823
vn 0.000000 -1.000000 -0.000000
vn -0.083782 -0.904194 0.418823
vn -0.160270 -0.576557 0.801184
vn -0.196156 -0.000000 0.980573
vn -0.160270 0.576557 0.801184
vn -0.083782 0.904194 0.418823
vn 0.000000 1.000000 -0.000000
vn 0.060036 0.904194 -0.422881
vn 0.114844 0.576557 -0.808946
vn 0.140559 0.000000 -0.990072
vn 0.114844 -0.576557 -0.808946
vn 0.060036 -0.904194 -0.422881
vn 0.000000 -1.000000 -0.000000
vn -0.060036 -0.904194 0.422881
vn -0.114844 -0.576557 0.808946
vn -0.140559 -0.000000 0.990072
vn -0.114844 0.576557 0.808946
vn -0.060036 0.904194 0.422881
vn 0.000000 1.000000 -0.000000
vn 0.036098 0.904194 -0.425593
vn 0.069053 0.576557 -0.814134
vn 0.084514 0.000000 -0.996422
vn 0.069053 -0.576557 -0.814134
vn 0.036098 -0.904194 -0.425593
vn 0.000000 -1.000000 -0.000000
vn -0.036098 -0.904194 0.425593
vn -0.069053 -0.576557 0.814134
vn -0.084514 -0.000000 0.996422
vn -0.069053 0.576557 0.814134
vn -0.036098 0.904194 0.425593
vn 0.000000 1.000000 -0.000000
vn 0.012045 0.904194 -0.426951
vn 0.023042 0.576557 -0.816732
vn 0.028201 0.000000 -0.999602
vn 0.023042 -0.576557 -0.816732
vn 0.012045 -0.904194 -0.426951
vn 0.000000 -1.000000 -0.000000
vn -0.012045 -0.904194 0.426951
vn -0.023042 -0.576557 0.816732
vn -0.028201 -0.000000 0.999602
vn -0.023042 0.576557 0.816732
vn -0.012045 0.904194 0.426951
vn -0.000000 1.000000 -0.000000
vn -0.012045 0.904194 -0.426951
vn -0.023042 0.576557 -0.816732
vn -0.028201 0.000000 -0.999602
vn -0.023042 -0.576557 -0.816732
vn -0.012045 -0.904194 -0.426951
vn -0.000000 -1.000000 -0.000000
vn 0.012045 -0.904194 0.426951
vn 0.023042 -0.576557 0.816732
vn 0.028201 -0.000000 0.999602
vn 0.023042 0.576557 0.816732
vn 0.012045 0.904194 0.426951
vn -0.000000 1.000000 -0.000000
vn -0.036098 0.904194 -0.425593
vn -0.069053 0.576557 -0.814134
vn -0.084514 0.000000 -0.996422
vn -0.069053 -0.576557 -0.814134
vn -0.036098 -0.904194 -0.425593
vn -0.000000 -1.000000 -0.000000
vn 0.036098 -0.904194 0.425593
vn 0.069053 -0.576557 0.814134
vn 0.084514 -0.000000 0.996422
vn 0.069053 0.576557 0.814134
vn 0.036098 0.904194 0.425593
vn -0.000000 1.000000 -0.000000
vn -0.060036 0.904194 -0.422881
vn -0.114844 0.576557 -0.808946
vn -0.140559 0.000000 -0.990072
vn -0.114844 -0.576557 -0.808946
vn -0.060036 -0.904194 -0.422881
vn -0.000000 -1.000000 -0.000000
vn 0.060036 -0.904194 0.422881
vn 0.114844 -0.576557 0.808946
vn 0.140559 -0.000000 0.990072
vn 0.114844 0.576557 0.808946
vn 0.060036 0.904194 0.422881
vn -0.000000 1.000000 -0.000000
vn -0.083782 0.904194 -0.418823
vn -0.160270 0.576557 -0.801184
vn -0.196156 0.000000 -0.980573
vn -0.160270 -0.576557 -0.801184
vn -0.083782 -0.904194 -0.418823
vn -0.000000 -1.000000 -0.000000
vn 0.083782 -0.904194 0.418823
vn 0.160270 -0.576557 0.801184
vn 0.196156 -0.000000 0.980573
vn 0.160270 0.576557 0.801184
vn 0.083782 0.904194 0.418823
vn -0.000000 1.000000 -0.000000
vn -0.107262 0.904194 -0.413433
vn -0.205187 0.576557 -0.790874
vn -0.251129 0.000000 -0.967954
vn -0.205187 -0.576557 -0.790874
vn -0.107262 -0.904194 -0.413433
vn -0.000000 -1.000000 -0.000000
vn 0.107262 -0.904194 0.413433
vn 0.205187 -0.576557 0.790874
vn 0.251129 -0.000000 0.967954
vn 0.205187 0.576557 0.790874
vn 0.107262 0.904194 0.413433
vn -0.000000 1.000000 -0.000000
vn -0.130401 0.904194 -0.406728
vn -0.249450 0.576557 -0.778047
vn -0.305303 0.000000 -0.952255
vn -0.249450 -0.576557 -0.778047
vn -0.130401 -0.904194 -0.406728
vn -0.000000 -1.000000 -0.000000
vn 0.130401 -0.904194 0.406728
vn 0.249450 -0.576557 0.778047
vn 0.305303 -0.000000 0.952255
vn 0.249450 0.576557 0.778047
vn 0.130401 0.904194 0.406728
vn -0.000000 1.000000 -0.000000
vn -0.153125 0.904194 -0.398729
vn -0.292920 0.576557 -0.762745
vn -0.358506 0.000000 -0.933528
vn -0.292920 -0.576557 -0.762745
vn -0.153125 -0.904194 -0.398729
vn -0.000000 -1.000000 -0.000000
vn 0.153125 -0.904194 0.398729
vn 0.292920 -0.576557 0.762745
vn 0.358506 -0.000000 0.933528
vn 0.292920 0.576557 0.762745
vn 0.153125 0.904194 0.398729
vn -0.000000 1.000000 -0.000000
vn -0.175362 0.904194 -0.389462
vn -0.335458 0.576557 -0.745017
vn -0.410568 0.000000 -0.911830
vn -0.335458 -0.576557 -0.745017
vn -0.175362 -0.904194 -0.389462
vn -0.000000 -1.000000 -0.000000
vn 0.175362 -0.904194 0.389462
vn 0.335458 -0.576557 0.745017
vn 0.410568 -0.000000 0.911830
vn 0.335458 0.576557 0.745017
vn 0.175362 0.904194 0.389462
vn -0.000000 1.000000 -0.000000
vn -0.197041 0.904194 -0.378955
vn -0.376928 0.576557 -0.724919
vn -0.461324 0.000000 -0.887232
vn -0.376928 -0.576557 -0.724919
vn -0.197041 -0.904194 -0.378955
vn -0.000000 -1.000000 -0.000000
vn 0.197041 -0.904194 0.378955
vn 0.376928 -0.576557 0.724919
vn 0.461324 -0.000000 0.887232
vn 0.376928 0.576557 0.724919
vn 0.197041 0.904194 0.378955
vn -0.000000 1.000000 -0.000000
vn -0.218094 0.904194 -0.367243
vn -0.417200 0.576557 -0.702515
vn -0.510613 0.000000 -0.859811
vn -0.417200 -0.576557 -0.702515
vn -0.218094 -0.904194 -0.367243
vn -0.000000 -1.000000 -0.000000
vn 0.218094 -0.904194 0.367243
vn 0.417200 -0.576557 0.702515
vn 0.510613 -0.000000 0.859811
vn 0.417200 0.576557 0.702515
vn 0.218094 0.904194 0.367243
vn -0.000000 1.000000 -0.000000
vn -0.238452 0.904194 -0.354363
vn -0.456144 0.576557 -0.677875
vn -0.558277 0.000000 -0.829655
vn -0.456144 -0.576557 -0.677875
vn -0.238452 -0.904194 -0.354363
vn -0.000000 -1.000000 -0.000000
vn 0.238452 -0.904194 0.354363
vn 0.456144 -0.576557 0.677875
vn 0.558277 -0.000000 0.829655
vn 0.456144 0.576557 0.677875
vn 0.238452 0.904194 0.354363
vn -0.000000 1.000000 -0.000000
vn -0.258052 0.904194 -0.340355
vn -0.493638 0.576557 -0.651079
vn -0.604165 0.000000 -0.796859
vn -0.493638 -0.576557 -0.651079
vn -0.258052 -0.904194 -0.340355
vn -0.000000 -1.000000 -0.000000
vn 0.258052 -0.904194 0.340355
vn 0.493638 -0.576557 0.651079
vn 0.604165 -0.000000 0.796859
vn 0.493638 0.576557 0.651079
vn 0.258052 0.904194 0.340355
vn -0.000000 1.000000 -0.000000
vn -0.276831 0.904194 -0.325265
vn -0.529560 0.576557 -0.622212
vn -0.648131 0.000000 -0.761528
vn -0.529560 -0.576557 -0.622212
vn -0.276831 -0.904194 -0.325265
vn -0.000000 -1.000000 -0.000000
vn 0.276831 -0.904194 0.325265
vn 0.529560 -0.576557 0.622212
vn 0.648131 -0.000000 0.761528
vn 0.529560 0.576557 0.622212
vn 0.276831 0.904194 0.325265
vn -0.000000 1.000000 -0.000000
vn -0.294729 0.904194 -0.309140
vn -0.563799 0.576557 -0.591366
vn -0.690036 0.000000 -0.723775
vn -0.563799 -0.576557 -0.591366
vn -0.294729 -0.904194 -0.309140
vn -0.000000 -1.000000 -0.000000
vn 0.294729 -0.904194 0.309140
vn 0.563799 -0.576557 0.591366
vn 0.690036 -0.000000 0.723775
vn 0.563799 0.576557 0.591366
vn 0.294729 0.904194 0.309140
vn -0.000000 1.000000 -0.000000
vn -0.311689 0.904194 -0.292031
vn -0.596243 0.576557 -0.558638
vn -0.729745 0.000000 -0.683720
vn -0.596243 -0.576557 -0.558638
vn -0.311689 -0.904194 -0.292031
vn -0.000000 -1.000000 -0.000000
vn 0.311689 -0.904194 0.292031
vn 0.596243 -0.576557 0.558638
vn 0.729745 -0.000000 0.683720
vn 0.596243 0.576557 0.558638
vn 0.311689 0.904194 0.292031
vn -0.000000 1.000000 -0.000000
vn -0.327658 0.904194 -0.273993
vn -0.626791 0.576557 -0.524133
vn -0.767132 0.000000 -0.641489
vn -0.626791 -0.576557 -0.524133
vn -0.327658 -0.904194 -0.273993
vn -0.000000 -1.000000 -0.000000
vn 0.327658 -0.904194 0.273993
vn 0.626791 -0.576557 0.524133
vn 0.767132 -0.000000 0.641489
vn 0.626791 0.576557 0.524133
vn 0.327658 0.904194 0.273993
vn -0.000000 1.000000 -0.000000
vn -0.342585 0.904194 -0.255084
vn -0.655345 0.576557 -0.487961
vn -0.802080 0.000000 -0.597217
vn -0.655345 -0.576557 -0.487961
vn -0.342585 -0.904194 -0.255084
vn -0.000000 -1.000000 -0.000000
vn 0.342585 -0.904194 0.255084
vn 0.655345 -0.576557 0.487961
vn 0.802080 -0.000000 0.597217
vn 0.655345 0.576557 0.487961
vn 0.342585 0.904194 0.255084
vn -0.000000 1.000000 -0.000000
vn -0.356422 0.904194 -0.235363
vn -0.681814 0.576557 -0.450236
vn -0.834475 0.000000 -0.551046
vn -0.681814 -0.576557 -0.450236
vn -0.356422 -0.904194 -0.235363
vn -0.000000 -1.000000 -0.000000
vn 0.356422 -0.904194 0.235363
vn 0.681814 -0.576557 0.450236
vn 0.834475 -0.000000 0.551046
vn 0.681814 0.576557 0.450236
vn 0.356422 0.904194 0.235363
vn -0.000000 1.000000 -0.000000
vn -0.369125 0.904194 -0.214894
vn -0.706114 0.576557 -0.411079
vn -0.864216 0.000000 -0.503121
vn -0.706114 -0.576557 -0.411079
vn -0.369125 -0.904194 -0.214894
vn -0.000000 -1.000000 -0.000000
vn 0.369125 -0.904194 0.214894
vn 0.706114 -0.576557 0.411079
vn 0.864216 -0.000000 0.503121
vn 0.706114 0.576557 0.411079
vn 0.369125 0.904194 0.214894
vn -0.000000 0.477254 -0.000000
vn -0.177577 0.421812 -0.090381
vn -0.321767 0.254772 -0.163769
vn -0.381066 0.000000 -0.193950
vn -0.321767 -0.254772 -0.163769
vn -0.177577 -0.421812 -0.090381
vn -0.000000 -0.477254 -0.000000
vn 0.177577 -0.421812 0.090381
vn 0.321767 -0.254772 0.163769
vn 0.381066 -0.000000 0.193950
vn 0.321767 0.254772 0.163769
vn 0.177577 0.421812 0.090381
vn -0.453596 0.000000 -0.891207
vn 0.453596 0.000000 -0.891207
f 1//1 2//2 14//14
f 1//1 14//14 13//13
f 2//2 3//3 15//15
f 2//2 15//15 14//14
f 3//3 4//4 16//16
f 3//3 16//16 15//15
f 4//4 5//5 17//17
f 4//4 17//17 16//16
f 5//5 6//6 18//18
f 5//5 18//18 17//17
f 6//6 7//7 19//19
f 6//6 19//19 18//18
f 7//7 8//8 20//20
f 7//7 20//20 19//19
f 8//8 9//9 21//21
f 8//8 21//21 20//20
f 9//9 10//10 22//22
f 9//9 22//22 21//21
f 10//10 11//11 23//23
f 10//10 23//23 22//22
f 11//11 12//12 24//24
f 11//11 24//24 23//23
f 12//12 1//1 13//13
f 12//12 13//13 24//24
f 13//13 14//14 26//26
f 13//13 26//26 25//25
f 14//14 15//15 27//27
f 14//14 27//27 26//26
f 15//15 16//16 28//28
f 15//15 28//28 27//27
f 16//16 17//17 29//29
f 16//16 29//29 28//28
f 17//17 18//18 30//30
f 17//17 30//30 29//29
f 18//18 19//19 31//31
f 18//18 31//31 30//30
f 19//19 20//20 32//32
f 19//19 32//32 31//31
f 20//20 21//21 33//33
f 20//20 33//33 32//32
f 21//21 22//22 34//34
f 21//21 34//34 33//33
f 22//22 23//23 35//35
f 22//22 35//35 34//34
f 23//23 24//24 36//36
f 23//23 36//36 35//35
f 24//24 13//13 25//25
f 24//24 25//25 36//36
f 25//25 26//26 38//38
f 25//25 38//38 37//37
f 26//26 27//27 39//39
f 26//26 39//39 38//38
f 27//27 28//28 40//40
f 27//27 40//40 39//39
f 28//28 29//29 41//41
f 28//28 41//41 40//40
f 29//29 30//30 42//42
f 29//29 42//42 41//41
f 30//30 31//31 43//43
f 30//30 43//43 42//42
f 31//31 32//32 44//44
f 31//31 44//44 43//43
f 32//32 33//33 45//45
f 32//32 45//45 44//44
f 33//33 34//34 46//46
f 33//33 46//46 45//45
f 34//34 35//35 47//47
f 34//34 47//47 46//46
f 35//35 36//36 48//48
f 35//35 48//48 47//47
f 36//36 25//25 37//37
f 36//36 37//37 48//48
f 37//37 38//38 50//50
f 37//37 50//50 49//49
f 38//38 39//39 51//51
f 38//38 51//51 50//50
f 39//39 40//40 52//52
f 39//39 52//52 51//51
f 40//40 41//41 53//53
f 40//40 53//53 52//52
f 41//41 42//42 54//54
f 41//41 54//54 53//53
f 42//42 43//43 55//55
f 42//42 55//55 54//54
f 43//43 44//44 56//56
f 43//43 56//56 55//55
f 44//44 45//45 57//57
f 44//44 57//57 56//56
f 45//45 46//46 58//58
f 45//45 58//58 57//57
f 46//46 47//47 59//59
f 46//46 59//59 58//58
f 47//47 48//48 60//60
f 47//47 60//60 59//59
f 48//48 37//37 49//49
f 48//48 49//49 60//60
f 49//49 50//50 62//62
f 49//49 62//62 61//61
f 50//50 51//51 63//63
f 50//50 63//63 62//62
f 51//51 52//52 64//64
f 51//51 64//64 63//63
f 52//52 53//53 65//65
f 52//52 65//65 64//64
f 53//53 54//54 66//66
f 53//53 66//66 65//65
f 54//54 55//55 67//67
f 54//54 67//67 66//66
f 55//55 56//56 68//68
f 55//55 68//68 67//67
f 56//56 57//57 69//69
f 56//56 69//69 68//68
f 57//57 58//58 70//70
f 57//57 70//70 69//69
f 58//58 59//59 71//71
f 58//58 71//71 70//70
f 59//59 60//60 72//72
f 59//59 72//72 71//71
f 60//60 49//49 61//61
f 60//60 61//61 72//72
f 61//61 62//62 74//74
f 61//61 74//74 73//73
f 62//62 63//63 75//75
f 62//62 75//75 74//74
f 63//63 64//64 76//76
f 63//63 76//76 75//75
f 64//64 65//65 77//77
f 64//64 77//77 76//76
f 65//65 66//66 78//78
f 65//65 78//78 77//77
f 66//66 67//67 79//79
f 66//66 79//79 78//78
f 67//67 68//68 80//80
f 67//67 80//80 79//79
f 68//68 69//69 81//81
f 68//68 81//81 80//80
f 69//69 70//70 82//82
f 69//69 82//82 81//81
f 70//70 71//71 83//83
f 70//70 83//83 82//82
f 71//71 72//72 84//84
f 71//71 84//84 83//83
f 72//72 61//61 73//73
f 72//72 73//73 84//84
f 73//73 74//74 86//86
f 73//73 86//86 85//85
f 74//74 75//75 87//87
f 74//74 87//87 86//86
f 75//75 76//76 88//88
f 75//75 88//88 87//87
f 76//76 77//77 89//89
f 76//76 89//89 88//88
f 77//77 78//78 90//90
f 77//77 90//90 89//89
f 78//78 79//79 91//91
f 78//78 91//91 90//90
f 79//79 80//80 92//92
f 79//79 92//92 91//91
f 80//80 81//81 93//93
f 80//80 93//93 92//92
f 81//81 82//82 94//94
f 81//81 94//94 93//93
f 82//82 83//83 95//95
f 82//82 95//95 94//94
f 83//83 84//84 96//96
f 83//83 96//96 95//95
f 84//84 73//73 85//85
f 84//84 85//85 96//96
f 85//85 86//86 98//98
f 85//85 98//98 97//97
f 86//86 87//87 99//99
f 86//86 99//99 98//98
f 87//87 88//88 100//100
f 87//87 100//100 99//99
f 88//88 89//89 101//101
f 88//88 101//101 100//100
f 89//89 90//90 102//102
f 89//89 102//102 101//101
f 90//90 91//91 103//103
f 90//90 103//103 102//102
f 91//91 92//92 104//104
f 91//91 104//104 103//103
f 92//92 93//93 105//105
f 92//92 105//105 104//104
f 93//93 94//94 106//106
f 93//93 106//106 105//105
f 94//94 95//95 107//107
f 94//94 107//107 106//106
f 95//95 96//96 108//108
f 95//95 108//108 107//107
f 96//96 85//85 97//97
f 96//96 97//97 108//108
f 97//97 98//98 110//110
f 97//97 110//110 109//109
f 98//98 99//99 111//111
f 98//98 111//111 110//110
f 99//99 100//100 112//112
f 99//99 112//112 111//111
f 100//100 101//101 113//113
f 100//100 113//113 112//112
f 101//101 102//102 114//114
f 101//101 114//114 113//113
f 102//102 103//103 115//115
f 102//102 115//115 114//114
f 103//103 104//104 116//116
f 103//103 116//116 115//115
f 104//104 105//105 117//117
f 104//104 117//117 116//116
f 105//105 106//106 118//118
f 105//105 118//118 117//117
f 106//106 107//107 119//119
f 106//106 119//119 118//118
f 107//107 108//108 120//120
f 107//107 120//120 119//119
f 108//108 97//97 109//109
f 108//108 109//109 120//120
f 109//109 110//110 122//122
f 109//109 122//122 121//121
f 110//110 111//111 123//123
f 110//110 123//123 122//122
f 111//111 112//112 124//124
f 111//111 124//124 123//123
f 112//112 113//113 125//125
f 112//112 125//125 124//124
f 113//113 114//114 126//126
f 113//113 126//126 125//125
f 114//114 115//115 127//127
f 114//114 127//127 126//126
f 115//115 116//116 128//128
f 115//115 128//128 127//127
f 116//116 117//117 129//129
f 116//116 129//129 128//128
f 117//117 118//118 130//130
f 117//117 130//130 129//129
f 118//118 119//119 131//131
f 118//118 131//131 130//130
f 119//119 120//120 132//132
f 119//119 132//132 131//131
f 120//120 109//109 121//121
f 120//120 121//121 132//132
f 121//121 122//122 134//134
f 121//121 134//134 133//133
f 122//122 123//123 135//135
f 122//122 135//135 134//134
f 123//123 124//124 136//136
f 123//123 136//136 135//135
f 124//124 125//125 137//137
f 124//124 137//137 136//136
f 125//125 126//126 138//138
f 125//125 138//138 137//137
f 126//126 127//127 139//139
f 126//126 139//139 138//138
f 127//127 128//128 140//140
f 127//127 140//140 139//139
f 128//128 129//129 141//141
f 128//128 141//141 140//140
f 129//129 130//130 142//142
f 129//129 142//142 141//141
f 130//130 131//131 143//143
f 130//130 143//143 142//142
f 131//131 132//132 144//144
f 131//131 144//144 143//143
f 132//132 121//121 133//133
f 132//132 133//133 144//144
f 133//133 134//134 146//146
f 133//133 146//146 145//145
f 134//134 135//135 147//147
f 134//134 147//147 146//146
f 135//135 136//136 148//148
f 135//135 148//148 147//147
f 136//136 137//137 149//149
f 136//136 149//149 148//148
f 137//137 138//138 150//150
f 137//137 150//150 149//149
f 138//138 139//139 151//151
f 138//138 151//151 150//150
f 139//139 140//140 152//152
f 139//139 152//152 151//151
f 140//140 141//141 153//153
f 140//140 153//153 152//152
f 141//141 142//142 154//154
f 141//141 154//154 153//153
f 142//142 143//143 155//155
f 142//142 155//155 154//154
f 143//143 144//144 156//156
f 143//143 156//156 155//155
f 144//144 133//133 145//145
f 144//144 145//145 156//156
f 145//145 146//146 158//158
f 145//145 158//158 157//157
f 146//146 147//147 159//159
f 146//146 159//159 158//158
f 147//147 148//148 160//160
f 147//147 160//160 159//159
f 148//148 149//149 161//161
f 148//148 161//161 160//160
f 149//149 150//150 162//162
f 149//149 162//162 161//161
f 150//150 151//151 163//163
f 150//150 163//163 162//162
f 151//151 152//152 164//164
f 151//151 164//164 163//163
f 152//152 153//153 165//165
f 152//152 165//165 164//164
f 153//153 154//154 166//166
f 153//153 166//166 165//165
f 154//154 155//155 167//167
f 154//154 167//167 166//166
f 155//155 156//156 168//168
f 155//155 168//168 167//167
f 156//156 145//145 157//157
f 156//156 157//157 168//168
f 157//157 158//158 170//170
f 157//157 170//170 169//169
f 158//158 159//159 171//171
f 158//158 171//171 170//170
f 159//159 160//160 172//172
f 159//159 172//172 171//171
f 160//160 161//161 173//173
f 160//160 173//173 172//172
f 161//161 162//162 174//174
f 161//161 174//174 173//173
f 162//162 163//163 175//175
f 162//162 175//175 174//174
f 163//163 164//164 176//176
f 163//163 176//176 175//175
f 164//164 165//165 177//177
f 164//164 177//177 176//176
f 165//165 166//166 178//178
f 165//165 178//178 177//177
f 166//166 167//167 179//179
f 166//166 179//179 178//178
f 167//167 168//168 180//180
f 167//167 180//180 179//179
f 168//168 157//157 169//169
f 168//168 169//169 180//180
f 169//169 170//170 182//182
f 169//169 182//182 181//181
f 170//170 171//171 183//183
f 170//170 183//183 182//182
f 171//171 172//172 184//184
f 171//171 184//184 183//183
f 172//172 173//173 185//185
f 172//172 185//185 184//184
f 173//173 174//174 186//186
f 173//173 186//186 185//185
f 174//174 175//175 187//187
f 174//174 187//187 186//186
f 175//175 176//176 188//188
f 175//175 188//188 187//187
f 176//176 177//177 189//189
f 176//176 189//189 188//188
f 177//177 178//178 190//190
f 177//177 190//190 189//189
f 178//178 179//179 191//191
f 178//178 191//191 190//190
f 179//179 180//180 192//192
f 179//179 192//192 191//191
f 180//180 169//169 181//181
f 180//180 181//181 192//192
f 181//181 182//182 194//194
f 181//181 194//194 193//193
f 182//182 183//183 195//195
f 182//182 195//195 194//194
f 183//183 184//184 196//196
f 183//183 196//196 195//195
f 184//184 185//185 197//197
f 184//184 197//197 196//196
f 185//185 186//186 198//198
f 185//185 198//198 197//197
f 186//186 187//187 199//199
f 186//186 199//199 198//198
f 187//187 188//188 200//200
f 187//187 200//200 199//199
f 188//188 189//189 201//201
f 188//188 201//201 200//200
f 189//189 190//190 202//202
f 189//189 202//202 201//201
f 190//190 191//191 203//203
f 190//190 203//203 202//202
f 191//191 192//192 204//204
f 191//191 204//204 203//203
f 192//192 181//181 193//193
f 192//192 193//193 204//204
f 193//193 194//194 206//206
f 193//193 206//206 205//205
f 194//194 195//195 207//207
f 194//194 207//207 206//206
f 195//195 196//196 208//208
f 195//195 208//208 207//207
f 196//196 197//197 209//209
f 196//196 209//209 208//208
f 197//197 198//198 210//210
f 197//197 210//210 209//209
f 198//198 199//199 211//211
f 198//198 211//211 210//210
f 199//199 200//200 212//212
f 199//199 212//212 211//211
f 200//200 201//201 213//213
f 200//200 213//213 212//212
f 201//201 202//202 214//214
f 201//201 214//214 213//213
f 202//202 203//203 215//215
f 202//202 215//215 214//214
f 203//203 204//204 216//216
f 203//203 216//216 215//215
f 204//204 193//193 205//205
f 204//204 205//205 216//216
f 205//205 206//206 218//218
f 205//205 218//218 217//217
f 206//206 207//207 219//219
f 206//206 219//219 218//218
f 207//207 208//208 220//220
f 207//207 220//220 219//219
f 208//208 209//209 221//221
f 208//208 221//221 220//220
f 209//209 210//210 222//222
f 209//209 222//222 221//221
f 210//210 211//211 223//223
f 210//210 223//223 222//222
f 211//211 212//212 224//224
f 211//211 224//224 223//223
f 212//212 213//213 225//225
f 212//212 225//225 224//224
f 213//213 214//214 226//226
f 213//213 226//226 225//225
f 214//214 215//215 227//227
f 214//214 227//227 226//226
f 215//215 216//216 228//228
f 215//215 228//228 227//227
f 216//216 205//205 217//217
f 216//216 217//217 228//228
f 217//217 218//218 230//230
f 217//217 230//230 229//229
f 218//218 219//219 231//231
f 218//218 231//231 230//230
f 219//219 220//220 232//232
f 219//219 232//232 231//231
f 220//220 221//221 233//233
f 220//220 233//233 232//232
f 221//221 222//222 234//234
f 221//221 234//234 233//233
f 222//222 223//223 235//235
f 222//222 235//235 234//234
f 223//223 224//224 236//236
f 223//223 236//236 235//235
f 224//224 225//225 237//237
f 224//224 237//237 236//236
f 225//225 226//226 238//238
f 225//225 238//238 237//237
f 226//226 227//227 239//239
f 226//226 239//239 238//238
f 227//227 228//228 240//240
f 227//227 240//240 239//239
f 228//228 217//217 229//229
f 228//228 229//229 240//240
f 229//229 230//230 242//242
f 229//229 242//242 241//241
f 230//230 231//231 243//243
f 230//230 243//243 242//242
f 231//231 232//232 244//244
f 231//231 244//244 243//243
f 232//232 233//233 245//245
f 232//232 245//245 244//244
f 233//233 234//234 246//246
f 233//233 246//246 245//245
f 234//234 235//235 247//247
f 234//234 247//247 246//246
f 235//235 236//236 248//248
f 235//235 248//248 247//247
f 236//236 237//237 249//249
f 236//236 249//249 248//248
f 237//237 238//238 250//250
f 237//237 250//250 249//249
f 238//238 239//239 251//251
f 238//238 251//251 250//250
f 239//239 240//240 252//252
f 239//239 252//252 251//251
f 240//240 229//229 241//241
f 240//240 241//241 252//252
f 241//241 242//242 254//254
f 241//241 254//254 253//253
f 242//242 243//243 255//255
f 242//242 255//255 254//254
f 243//243 244//244 256//256
f 243//243 256//256 255//255
f 244//244 245//245 257//257
f 244//244 257//257 256//256
f 245//245 246//246 258//258
f 245//245 258//258 257//257
f 246//246 247//247 259//259
f 246//246 259//259 258//258
f 247//247 248//248 260//260
f 247//247 260//260 259//259
f 248//248 249//249 261//261
f 248//248 261//261 260//260
f 249//249 250//250 262//262
f 249//249 262//262 261//261
f 250//250 251//251 263//263
f 250//250 263//263 262//262
f 251//251 252//252 264//264
f 251//251 264//264 263//263
f 252//252 241//241 253//253
f 252//252 253//253 264//264
f 253//253 254//254 266//266
f 253//253 266//266 265//265
f 254//254 255//255 267//267
f 254//254 267//267 266//266
f 255//255 256//256 268//268
f 255//255 268//268 267//267
f 256//256 257//257 269//269
f 256//256 269//269 268//268
f 257//257 258//258 270//270
f 257//257 270//270 269//269
f 258//258 259//259 271//271
f 258//258 271//271 270//270
f 259//259 260//260 272//272
f 259//259 272//272 271//271
f 260//260 261//261 273//273
f 260//260 273//273 272//272
f 261//261 262//262 274//274
f 261//261 274//274 273//273
f 262//262 263//263 275//275
f 262//262 275//275 274//274
f 263//263 264//264 276//276
f 263//263 276//276 275//275
f 264//264 253//253 265//265
f 264//264 265//265 276//276
f 265//265 266//266 278//278
f 265//265 278//278 277//277
f 266//266 267//267 279//279
f 266//266 279//279 278//278
f 267//267 268//268 280//280
f 267//267 280//280 279//279
f 268//268 269//269 281//281
f 268//268 281//281 280//280
f 269//269 270//270 282//282
f 269//269 282//282 281//281
f 270//270 271//271 283//283
f 270//270 283//283 282//282
f 271//271 272//272 284//284
f 271//271 284//284 283//283
f 272//272 273//273 285//285
f 272//272 285//285 284//284
f 273//273 274//274 286//286
f 273//273 286//286 285//285
f 274//274 275//275 287//287
f 274//274 287//287 286//286
f 275//275 276//276 288//288
f 275//275 288//288 287//287
f 276//276 265//265 277//277
f 276//276 277//277 288//288
f 277//277 278//278 290//290
f 277//277 290//290 289//289
f 278//278 279//279 291//291
f 278//278 291//291 290//290
f 279//279 280//280 292//292
f 279//279 292//292 291//291
f 280//280 281//281 293//293
f 280//280 293//293 292//292
f 281//281 282//282 294//294
f 281//281 294//294 293//293
f 282//282 283//283 295//295
f 282//282 295//295 294//294
f 283//283 284//284 296//296
f 283//283 296//296 295//295
f 284//284 285//285 297//297
f 284//284 297//297 296//296
f 285//285 286//286 298//298
f 285//285 298//298 297//297
f 286//286 287//287 299//299
f 286//286 299//299 298//298
f 287//287 288//288 300//300
f 287//287 300//300 299//299
f 288//288 277//277 289//289
f 288//288 289//289 300//300
f 289//289 290//290 302//302
f 289//289 302//302 301//301
f 290//290 291//291 303//303
f 290//290 303//303 302//302
f 291//291 292//292 304//304
f 291//291 304//304 303//303
f 292//292 293//293 305//305
f 292//292 305//305 304//304
f 293//293 294//294 306//306
f 293//293 306//306 305//305
f 294//294 295//295 307//307
f 294//294 307//307 306//306
f 295//295 296//296 308//308
f 295//295 308//308 307//307
f 296//296 297//297 309//309
f 296//296 309//309 308//308
f 297//297 298//298 310//310
f 297//297 310//310 309//309
f 298//298 299//299 311//311
f 298//298 311//311 310//310
f 299//299 300//300 312//312
f 299//299 312//312 311//311
f 300//300 289//289 301//301
f 300//300 301//301 312//312
f 301//301 302//302 314//314
f 301//301 314//314 313//313
f 302//302 303//303 315//315
f 302//302 315//315 314//314
f 303//303 304//304 316//316
f 303//303 316//316 315//315
f 304//304 305//305 317//317
f 304//304 317//317 316//316
f 305//305 306//306 318//318
f 305//305 318//318 317//317
f 306//306 307//307 319//319
f 306//306 319//319 318//318
f 307//307 308//308 320//320
f 307//307 320//320 319//319
f 308//308 309//309 321//321
f 308//308 321//321 320//320
f 309//309 310//310 322//322
f 309//309 322//322 321//321
f 310//310 311//311 323//323
f 310//310 323//323 322//322
f 311//311 312//312 324//324
f 311//311 324//324 323//323
f 312//312 301//301 313//313
f 312//312 313//313 324//324
f 313//313 314//314 326//326
f 313//313 326//326 325//325
f 314//314 315//315 327//327
f 314//314 327//327 326//326
f 315//315 316//316 328//328
f 315//315 328//328 327//327
f 316//316 317//317 329//329
f 316//316 329//329 328//328
f 317//317 318//318 330//330
f 317//317 330//330 329//329
f 318//318 319//319 331//331
f 318//318 331//331 330//330
f 319//319 320//320 332//332
f 319//319 332//332 331//331
f 320//320 321//321 333//333
f 320//320 333//333 332//332
f 321//321 322//322 334//334
f 321//321 334//334 333//333
f 322//322 323//323 335//335
f 322//322 335//335 334//334
f 323//323 324//324 336//336
f 323//323 336//336 335//335
f 324//324 313//313 325//325
f 324//324 325//325 336//336
f 325//325 326//326 338//338
f 325//325 338//338 337//337
f 326//326 327//327 339//339
f 326//326 339//339 338//338
f 327//327 328//328 340//340
f 327//327 340//340 339//339
f 328//328 329//329 341//341
f 328//328 341//341 340//340
f 329//329 330//330 342//342
f 329//329 342//342 341//341
f 330//330 331//331 343//343
f 330//330 343//343 342//342
f 331//331 332//332 344//344
f 331//331 344//344 343//343
f 332//332 333//333 345//345
f 332//332 345//345 344//344
f 333//333 334//334 346//346
f 333//333 346//346 345//345
f 334//334 335//335 347//347
f 334//334 347//347 346//346
f 335//335 336//336 348//348
f 335//335 348//348 347//347
f 336//336 325//325 337//337
f 336//336 337//337 348//348
f 337//337 338//338 350//350
f 337//337 350//350 349//349
f 338//338 339//339 351//351
f 338//338 351//351 350//350
f 339//339 340//340 352//352
f 339//339 352//352 351//351
f 340//340 341//341 353//353
f 340//340 353//353 352//352
f 341//341 342//342 354//354
f 341//341 354//354 353//353
f 342//342 343//343 355//355
f 342//342 355//355 354//354
f 343//343 344//344 356//356
f 343//343 356//356 355//355
f 344//344 345//345 357//357
f 344//344 357//357 356//356
f 345//345 346//346 358//358
f 345//345 358//358 357//357
f 346//346 347//347 359//359
f 346//346 359//359 358//358
f 347//347 348//348 360//360
f 347//347 360//360 359//359
f 348//348 337//337 349//349
f 348//348 349//349 360//360
f 349//349 350//350 362//362
f 349//349 362//362 361//361
f 350//350 351//351 363//363
f 350//350 363//363 362//362
f 351//351 352//352 364//364
f 351//351 364//364 363//363
f 352//352 353//353 365//365
f 352//352 365//365 364//364
f 353//353 354//354 366//366
f 353//353 366//366 365//365
f 354//354 355//355 367//367
f 354//354 367//367 366//366
f 355//355 356//356 368//368
f 355//355 368//368 367//367
f 356//356 357//357 369//369
f 356//356 369//369 368//368
f 357//357 358//358 370//370
f 357//357 370//370 369//369
f 358//358 359//359 371//371
f 358//358 371//371 370//370
f 359//359 360//360 372//372
f 359//359 372//372 371//371
f 360//360 349//349 361//361
f 360//360 361//361 372//372
f 361//361 362//362 374//374
f 361//361 374//374 373//373
f 362//362 363//363 375//375
f 362//362 375//375 374//374
f 363//363 364//364 376//376
f 363//363 376//376 375//375
f 364//364 365//365 377//377
f 364//364 377//377 376//376
f 365//365 366//366 378//378
f 365//365 378//378 377//377
f 366//366 367//367 379//379
f 366//366 379//379 378//378
f 367//367 368//368 380//380
f 367//367 380//380 379//379
f 368//368 369//369 381//381
f 368//368 381//381 380//380
f 369//369 370//370 382//382
f 369//369 382//382 381//381
f 370//370 371//371 383//383
f 370//370 383//383 382//382
f 371//371 372//372 384//384
f 371//371 384//384 383//383
f 372//372 361//361 373//373
f 372//372 373//373 384//384
f 373//373 374//374 386//386
f 373//373 386//386 385//385
f 374//374 375//375 387//387
f 374//374 387//387 386//386
f 375//375 376//376 388//388
f 375//375 388//388 387//387
f 376//376 377//377 389//389
f 376//376 389//389 388//388
f 377//377 378//378 390//390
f 377//377 390//390 389//389
f 378//378 379//379 391//391
f 378//378 391//391 390//390
f 379//379 380//380 392//392
f 379//379 392//392 391//391
f 380//380 381//381 393//393
f 380//380 393//393 392//392
f 381//381 382//382 394//394
f 381//381 394//394 393//393
f 382//382 383//383 395//395
f 382//382 395//395 394//394
f 383//383 384//384 396//396
f 383//383 396//396 395//395
f 384//384 373//373 385//385
f 384//384 385//385 396//396
f 385//385 386//386 398//398
f 385//385 398//398 397//397
f 386//386 387//387 399//399
f 386//386 399//399 398//398
f 387//387 388//388 400//400
f 387//387 400//400 399//399
f 388//388 389//389 401//401
f 388//388 401//401 400//400
f 389//389 390//390 402//402
f 389//389 402//402 401//401
f 390//390 391//391 403//403
f 390//390 403//403 402//402
f 391//391 392//392 404//404
f 391//391 404//404 403//403
f 392//392 393//393 405//405
f 392//392 405//405 404//404
f 393//393 394//394 406//406
f 393//393 406//406 405//405
f 394//394 395//395 407//407
f 394//394 407//407 406//406
f 395//395 396//396 408//408
f 395//395 408//408 407//407
f 396//396 385//385 397//397
f 396//396 397//397 408//408
f 397//397 398//398 410//410
f 397//397 410//410 409//409
f 398//398 399//399 411//411
f 398//398 411//411 410//410
f 399//399 400//400 412//412
f 399//399 412//412 411//411
f 400//400 401//401 413//413
f 400//400 413//413 412//412
f 401//401 402//402 414//414
f 401//401 414//414 413//413
f 402//402 403//403 415//415
f 402//402 415//415 414//414
f 403//403 404//404 416//416
f 403//403 416//416 415//415
f 404//404 405//405 417//417
f 404//404 417//417 416//416
f 405//405 406//406 418//418
f 405//405 418//418 417//417
f 406//406 407//407 419//419
f 406//406 419//419 418//418
f 407//407 408//408 420//420
f 407//407 420//420 419//419
f 408//408 397//397 409//409
f 408//408 409//409 420//420
f 409//409 410//410 422//422
f 409//409 422//422 421//421
f 410//410 411//411 423//423
f 410//410 423//423 422//422
f 411//411 412//412 424//424
f 411//411 424//424 423//423
f 412//412 413//413 425//425
f 412//412 425//425 424//424
f 413//413 414//414 426//426
f 413//413 426//426 425//425
f 414//414 415//415 427//427
f 414//414 427//427 426//426
f 415//415 416//416 428//428
f 415//415 428//428 427//427
f 416//416 417//417 429//429
f 416//416 429//429 428//428
f 417//417 418//418 430//430
f 417//417 430//430 429//429
f 418//418 419//419 431//431
f 418//418 431//431 430//430
f 419//419 420//420 432//432
f 419//419 432//432 431//431
f 420//420 409//409 421//421
f 420//420 421//421 432//432
f 421//421 422//422 434//434
f 421//421 434//434 433//433
f 422//422 423//423 435//435
f 422//422 435//435 434//434
f 423//423 424//424 436//436
f 423//423 436//436 435//435
f 424//424 425//425 437//437
f 424//424 437//437 436//436
f 425//425 426//426 438//438
f 425//425 438//438 437//437
f 426//426 427//427 439//439
f 426//426 439//439 438//438
f 427//427 428//428 440//440
f 427//427 440//440 439//439
f 428//428 429//429 441//441
f 428//428 441//441 440//440
f 429//429 430//430 442//442
f 429//429 442//442 441//441
f 430//430 431//431 443//443
f 430//430 443//443 442//442
f 431//431 432//432 444//444
f 431//431 444//444 443//443
f 432//432 421//421 433//433
f 432//432 433//433 444//444
f 433//433 434//434 446//446
f 433//433 446//446 445//445
f 434//434 435//435 447//447
f 434//434 447//447 446//446
f 435//435 436//436 448//448
f 435//435 448//448 447//447
f 436//436 437//437 449//449
f 436//436 449//449 448//448
f 437//437 438//438 450//450
f 437//437 450//450 449//449
f 438//438 439//439 451//451
f 438//438 451//451 450//450
f 439//439 440//440 452//452
f 439//439 452//452 451//451
f 440//440 441//441 453//453
f 440//440 453//453 452//452
f 441//441 442//442 454//454
f 441//441 454//454 453//453
f 442//442 443//443 455//455
f 442//442 455//455 454//454
f 443//443 444//444 456//456
f 443//443 456//456 455//455
f 444//444 433//433 445//445
f 444//444 445//445 456//456
f 445//445 446//446 458//458
f 445//445 458//458 457//457
f 446//446 447//447 459//459
f 446//446 459//459 458//458
f 447//447 448//448 460//460
f 447//447 460//460 459//459
f 448//448 449//449 461//461
f 448//448 461//461 460//460
f 449//449 450//450 462//462
f 449//449 462//462 461//461
f 450//450 451//451 463//463
f 450//450 463//463 462//462
f 451//451 452//452 464//464
f 451//451 464//464 463//463
f 452//452 453//453 465//465
f 452//452 465//465 464//464
f 453//453 454//454 466//466
f 453//453 466//466 465//465
f 454//454 455//455 467//467
f 454//454 467//467 466//466
f 455//455 456//456 468//468
f 455//455 468//468 467//467
f 456//456 445//445 457//457
f 456//456 457//457 468//468
f 457//457 458//458 470//470
f 457//457 470//470 469//469
f 458//458 459//459 471//471
f 458//458 471//471 470//470
f 459//459 460//460 472//472
f 459//459 472//472 471//471
f 460//460 461//461 473//473
f 460//460 473//473 472//472
f 461//461 462//462 474//474
f 461//461 474//474 473//473
f 462//462 463//463 475//475
f 462//462 475//475 474//474
f 463//463 464//464 476//476
f 463//463 476//476 475//475
f 464//464 465//465 477//477
f 464//464 477//477 476//476
f 465//465 466//466 478//478
f 465//465 478//478 477//477
f 466//466 467//467 479//479
f 466//466 479//479 478//478
f 467//467 468//468 480//480
f 467//467 480//480 479//479
f 468//468 457//457 469//469
f 468//468 469//469 480//480
f 481//481 1//1 2//2
f 481//481 2//2 3//3
f 481//481 3//3 4//4
f 481//481 4//4 5//5
f 481//481 5//5 6//6
f 481//481 6//6 7//7
f 481//481 7//7 8//8
f 481//481 8//8 9//9
f 481//481 9//9 10//10
f 481//481 10//10 11//11
f 481//481 11//11 12//12
f 481//481 12//12 1//1
f 482//482 470//470 469//469
f 482//482 471//471 470//470
f 482//482 472//472 471//471
f 482//482 473//473 472//472
f 482//482 474//474 473//473
f 482//482 475//475 474//474
f 482//482 476//476 475//475
f 482//482 477//477 476//476
f 482//482 478//478 477//477
f 482//482 479//479 478//478
f 482//482 480//480 479//479
f 482//482 469//469 480//480
